#N canvas 827 239 527 327 12;
#X obj 93 206 +~;
#X obj 265 177 *~;
#X obj 93 293 osc~;
#X obj 164 345 +~;
#X obj 164 374 +~;
#X obj 164 403 +~;
#X obj 164 432 +~;
#X obj 164 461 +~;
#X obj 163 285 osc~;
#X obj 204 285 osc~;
#X obj 246 285 osc~;
#X obj 287 285 osc~;
#X obj 328 285 osc~;
#X obj 370 285 osc~;
#X obj 163 315 *~ 1;
#X obj 204 315 *~ 1;
#X obj 246 315 *~ 1;
#X obj 287 315 *~ 1;
#X obj 328 315 *~ 1;
#X obj 370 315 *~ 1;
#X obj 93 32 r basefreq @hv_param;
#X obj 265 32 r modfreq @hv_param;
#X obj 93 109 * 440;
#X obj 265 109 * 10;
#X obj 424 138 * 440;
#X obj 265 138 osc~;
#X obj 163 246 *~ 1.1;
#X obj 234 245 *~ 1.1;
#X obj 317 243 *~ 1.1;
#X obj 384 243 *~ 1.1;
#X obj 446 242 *~ 1.1;
#X obj 96 732 dac~;
#X obj 252 530 r lpfreq @hv_param;
#X obj 436 32 r moddepth @hv_param;
#X obj 96 576 hip~;
#X obj 252 559 * 1600;
#X obj 252 588 + 440;
#X obj 463 284 bng 25 250 50 0 empty empty empty 17 7 0 10 #e4e4e4 #4d4d4d #373737;
#X obj 450 464 line~;
#X msg 463 390 1 10;
#X obj 516 336 delay 100;
#X msg 538 390 0 100;
#X obj 96 530 *~;
#X obj 538 272 r button @hv_param;
#X connect 0 0 2 0;
#X connect 0 0 26 0;
#X connect 1 0 0 1;
#X connect 2 0 42 0;
#X connect 3 0 4 0;
#X connect 4 0 5 0;
#X connect 5 0 6 0;
#X connect 6 0 7 0;
#X connect 7 0 42 0;
#X connect 8 0 14 0;
#X connect 9 0 15 0;
#X connect 10 0 16 0;
#X connect 11 0 17 0;
#X connect 12 0 18 0;
#X connect 13 0 19 0;
#X connect 14 0 3 0;
#X connect 15 0 3 1;
#X connect 16 0 4 1;
#X connect 17 0 5 1;
#X connect 18 0 6 1;
#X connect 19 0 7 1;
#X connect 20 0 22 0;
#X connect 21 0 23 0;
#X connect 22 0 0 0;
#X connect 23 0 25 0;
#X connect 24 0 1 1;
#X connect 25 0 1 0;
#X connect 26 0 8 0;
#X connect 26 0 27 0;
#X connect 27 0 9 0;
#X connect 27 0 28 0;
#X connect 28 0 10 0;
#X connect 28 0 29 0;
#X connect 29 0 12 0;
#X connect 29 0 30 0;
#X connect 30 0 13 0;
#X connect 32 0 35 0;
#X connect 33 0 24 0;
#X connect 34 0 31 0;
#X connect 34 0 31 1;
#X connect 35 0 36 0;
#X connect 36 0 34 1;
#X connect 37 0 39 0;
#X connect 37 0 40 0;
#X connect 38 0 42 1;
#X connect 39 0 38 0;
#X connect 40 0 41 0;
#X connect 41 0 38 0;
#X connect 42 0 34 0;
#X connect 43 0 37 0;
